<?xml version="1.0" encoding="UTF-8" standalone="no"?>
<svg
   xmlns:dc="http://purl.org/dc/elements/1.1/"
   xmlns:cc="http://creativecommons.org/ns#"
   xmlns:rdf="http://www.w3.org/1999/02/22-rdf-syntax-ns#"
   xmlns:svg="http://www.w3.org/2000/svg"
   xmlns="http://www.w3.org/2000/svg"
   viewBox="0 0 178.30344 32.000001"
   height="32"
   width="178.30344"
   xml:space="preserve"
   id="logo-rede-svg"
   version="1.1"><metadata
     id="metadata8"><rdf:RDF><cc:Work
         rdf:about=""><dc:format>image/svg+xml</dc:format><dc:type
           rdf:resource="http://purl.org/dc/dcmitype/StillImage" /><dc:title></dc:title></cc:Work></rdf:RDF></metadata><defs
     id="defs6"><clipPath
       id="clipPath20"
       clipPathUnits="userSpaceOnUse"><path
         id="path18"
         d="M 0,1080 H 1920 V 0 H 0 Z" /></clipPath><clipPath
       id="clipPath62"
       clipPathUnits="userSpaceOnUse"><path
         id="path60"
         d="M 0,0 H 1920 V 1080 H 0 Z" /></clipPath><clipPath
       id="clipPath90"
       clipPathUnits="userSpaceOnUse"><path
         id="path88"
         d="M 0,0 H 1920 V 1080 H 0 Z" /></clipPath><clipPath
       id="clipPath106"
       clipPathUnits="userSpaceOnUse"><path
         id="path104"
         d="M 0,0 H 1920 V 1080 H 0 Z" /></clipPath><clipPath
       id="clipPath134"
       clipPathUnits="userSpaceOnUse"><path
         id="path132"
         d="M 0,0 H 1920 V 1080 H 0 Z" /></clipPath><clipPath
       id="clipPath150"
       clipPathUnits="userSpaceOnUse"><path
         id="path148"
         d="M 0,0 H 1920 V 1080 H 0 Z" /></clipPath><clipPath
       id="clipPath174"
       clipPathUnits="userSpaceOnUse"><path
         id="path172"
         d="M 0,0 H 1920 V 1080 H 0 Z" /></clipPath><clipPath
       id="clipPath202"
       clipPathUnits="userSpaceOnUse"><path
         id="path200"
         d="M 0,0 H 1920 V 1080 H 0 Z" /></clipPath><clipPath
       id="clipPath222"
       clipPathUnits="userSpaceOnUse"><path
         id="path220"
         d="M 0,0 H 1920 V 1080 H 0 Z" /></clipPath><clipPath
       id="clipPath238"
       clipPathUnits="userSpaceOnUse"><path
         id="path236"
         d="M 0,0 H 1920 V 1080 H 0 Z" /></clipPath><clipPath
       id="clipPath266"
       clipPathUnits="userSpaceOnUse"><path
         id="path264"
         d="M 0,0 H 1920 V 1080 H 0 Z" /></clipPath><clipPath
       id="clipPath282"
       clipPathUnits="userSpaceOnUse"><path
         id="path280"
         d="M 0,0 H 1920 V 1080 H 0 Z" /></clipPath><clipPath
       id="clipPath306"
       clipPathUnits="userSpaceOnUse"><path
         id="path304"
         d="M 0,0 H 1920 V 1080 H 0 Z" /></clipPath><clipPath
       id="clipPath334"
       clipPathUnits="userSpaceOnUse"><path
         id="path332"
         d="M 0,0 H 1920 V 1080 H 0 Z" /></clipPath><clipPath
       id="clipPath358"
       clipPathUnits="userSpaceOnUse"><path
         id="path356"
         d="M 0,0 H 1920 V 1080 H 0 Z" /></clipPath><clipPath
       id="clipPath374"
       clipPathUnits="userSpaceOnUse"><path
         id="path372"
         d="M 0,0 H 1920 V 1080 H 0 Z" /></clipPath><clipPath
       id="clipPath402"
       clipPathUnits="userSpaceOnUse"><path
         id="path400"
         d="M 0,0 H 1920 V 1080 H 0 Z" /></clipPath><clipPath
       id="clipPath418"
       clipPathUnits="userSpaceOnUse"><path
         id="path416"
         d="M 0,0 H 1920 V 1080 H 0 Z" /></clipPath><clipPath
       id="clipPath442"
       clipPathUnits="userSpaceOnUse"><path
         id="path440"
         d="M 0,0 H 1920 V 1080 H 0 Z" /></clipPath><clipPath
       id="clipPath470"
       clipPathUnits="userSpaceOnUse"><path
         id="path468"
         d="M 0,0 H 1920 V 1080 H 0 Z" /></clipPath><clipPath
       id="clipPath502"
       clipPathUnits="userSpaceOnUse"><path
         id="path500"
         d="M 0,0 H 1920 V 1080 H 0 Z" /></clipPath><clipPath
       id="clipPath518"
       clipPathUnits="userSpaceOnUse"><path
         id="path516"
         d="M 0,0 H 1920 V 1080 H 0 Z" /></clipPath><clipPath
       id="clipPath546"
       clipPathUnits="userSpaceOnUse"><path
         id="path544"
         d="M 0,0 H 1920 V 1080 H 0 Z" /></clipPath><clipPath
       id="clipPath562"
       clipPathUnits="userSpaceOnUse"><path
         id="path560"
         d="M 0,0 H 1920 V 1080 H 0 Z" /></clipPath><clipPath
       id="clipPath586"
       clipPathUnits="userSpaceOnUse"><path
         id="path584"
         d="M 0,0 H 1920 V 1080 H 0 Z" /></clipPath><clipPath
       id="clipPath614"
       clipPathUnits="userSpaceOnUse"><path
         id="path612"
         d="M 0,0 H 1920 V 1080 H 0 Z" /></clipPath><clipPath
       id="clipPath646"
       clipPathUnits="userSpaceOnUse"><path
         id="path644"
         d="M 0,0 H 1920 V 1080 H 0 Z" /></clipPath><clipPath
       id="clipPath662"
       clipPathUnits="userSpaceOnUse"><path
         id="path660"
         d="M 0,0 H 1920 V 1080 H 0 Z" /></clipPath><clipPath
       id="clipPath690"
       clipPathUnits="userSpaceOnUse"><path
         id="path688"
         d="M 0,0 H 1920 V 1080 H 0 Z" /></clipPath><clipPath
       id="clipPath706"
       clipPathUnits="userSpaceOnUse"><path
         id="path704"
         d="M 0,0 H 1920 V 1080 H 0 Z" /></clipPath><clipPath
       id="clipPath730"
       clipPathUnits="userSpaceOnUse"><path
         id="path728"
         d="M 0,0 H 1920 V 1080 H 0 Z" /></clipPath><clipPath
       id="clipPath758"
       clipPathUnits="userSpaceOnUse"><path
         id="path756"
         d="M 0,0 H 1920 V 1080 H 0 Z" /></clipPath><clipPath
       id="clipPath782"
       clipPathUnits="userSpaceOnUse"><path
         id="path780"
         d="M 0,0 H 1920 V 1080 H 0 Z" /></clipPath><clipPath
       id="clipPath798"
       clipPathUnits="userSpaceOnUse"><path
         id="path796"
         d="M 0,0 H 1920 V 1080 H 0 Z" /></clipPath><clipPath
       id="clipPath826"
       clipPathUnits="userSpaceOnUse"><path
         id="path824"
         d="M 0,0 H 1920 V 1080 H 0 Z" /></clipPath><clipPath
       id="clipPath842"
       clipPathUnits="userSpaceOnUse"><path
         id="path840"
         d="M 0,0 H 1920 V 1080 H 0 Z" /></clipPath><clipPath
       id="clipPath866"
       clipPathUnits="userSpaceOnUse"><path
         id="path864"
         d="M 0,0 H 1920 V 1080 H 0 Z" /></clipPath><clipPath
       id="clipPath894"
       clipPathUnits="userSpaceOnUse"><path
         id="path892"
         d="M 0,0 H 1920 V 1080 H 0 Z" /></clipPath></defs><g
     transform="matrix(1.3333333,0,0,-1.3333333,-1771.8416,2236.7005)"
     id="g10"><g
       transform="matrix(0.20049122,0,0,0.20049122,1229.4376,1502.756)"
       id="g1803"><g
         id="g56"><g
           id="g58"
           clip-path="url(#clipPath62)"><g
             id="g64"
             transform="translate(650.9076,819.09)"><path
               d="m 0,0 c -36.084,-29.341 -88.427,-58.387 -134.786,-47.675 14.633,-9.483 48.496,-16.922 55.572,-18.151 31.015,-5.797 79.818,8.97 108.601,31.523 11.556,9.321 26.491,21.286 23.344,36.462 C 45.374,16.59 38.788,28.046 31.437,42.476 25.741,25.508 16.503,15.075 0,0"
               style="fill:#2eb5c2;fill-opacity:1;fill-rule:nonzero;stroke:none"
               id="path66" /></g><g
             id="g68"
             transform="translate(540.9537,849.0272)"><path
               d="m 0,0 c -6.353,-0.339 -12.754,-1.467 -19.05,-3.705 -16.683,-6.452 -27.137,-19.616 -25.787,-42.065 1.66,-17.958 9.97,-27.188 20.051,-31.85 8.617,-1.987 17.441,-2.598 26.326,-2.091 C -25.304,-55.586 -15.982,-15.233 0,0"
               style="fill:#f05921;fill-opacity:1;fill-rule:nonzero;stroke:none"
               id="path70" /></g><g
             id="g72"
             transform="translate(595.0381,837.955)"><path
               d="m 0,0 c 20.105,-8.865 41.746,-14.039 61.657,-13.473 12.906,12.324 20.61,22.159 25.607,36.961 -4.114,6.424 -10.733,10.266 -16.325,10.263 -0.409,0 -0.813,-0.02 -1.21,-0.061 C 51.509,30.86 33.339,22.755 15.053,21.172 0.087,22.14 -11.782,30.968 -26.228,25.975 -43.539,20.218 -59.805,12.738 -73.368,7.289 -46.895,16.815 -18.484,6.744 0,0"
               style="fill:#309e8c;fill-opacity:1;fill-rule:nonzero;stroke:none"
               id="path74" /></g><g
             id="g76"
             transform="translate(791.6873,789.9674)"><path
               d="m 0,0 h -19.017 l -13.15,20.193 c -1.526,-0.236 -3.168,-0.354 -4.695,-0.354 h -5.634 V 0 h -16.437 v 79.83 h 22.071 c 22.305,0 35.689,-10.684 35.689,-30.171 0,-12.445 -5.516,-20.311 -15.379,-24.772 z m -37.331,34.163 c 13.383,0 19.253,4.227 19.253,15.496 0,11.27 -6.105,15.732 -19.253,15.732 h -5.165 V 34.163 Z"
               style="fill:#454545;fill-opacity:1;fill-rule:nonzero;stroke:none"
               id="path78" /></g></g></g><g
         id="g80"
         transform="translate(804.8323,869.797)"><path
           d="M 0,0 H 52.828 V -14.439 H 16.434 v -25.358 h 32.05 V -53.885 H 16.434 V -65.39 H 54.471 V -79.83 H 0 Z"
           style="fill:#454545;fill-opacity:1;fill-rule:nonzero;stroke:none"
           id="path82" /></g><g
         id="g84"><g
           id="g86"
           clip-path="url(#clipPath90)"><g
             id="g92"
             transform="translate(874.5605,869.797)"><path
               d="m 0,0 h 24.535 c 24.537,0 42.03,-16.319 42.03,-39.915 0,-23.597 -17.374,-39.915 -42.03,-39.915 H 0 Z m 23.714,-65.39 c 17.726,0 25.828,10.567 25.828,25.475 0,14.909 -8.102,25.476 -25.828,25.476 H 16.436 V -65.39 Z"
               style="fill:#454545;fill-opacity:1;fill-rule:nonzero;stroke:none"
               id="path94" /></g></g></g><g
         id="g96"
         transform="translate(954.9729,869.797)"><path
           d="M 0,0 H 52.827 V -14.439 H 16.434 v -25.358 h 32.05 V -53.885 H 16.434 V -65.39 H 54.472 V -79.83 H 0 Z"
           style="fill:#454545;fill-opacity:1;fill-rule:nonzero;stroke:none"
           id="path98" /></g><g
         id="g100"><g
           id="g102"
           clip-path="url(#clipPath106)"><g
             id="g108"
             transform="translate(732.7542,758.0184)"><path
               d="m 0,0 1.884,1.004 c 1.003,-1.787 2.478,-3.326 5.491,-3.326 2.478,0 4.422,1.38 4.422,3.64 0,2.164 -1.347,3.264 -4.014,4.456 L 6.087,6.557 c -3.043,1.381 -4.706,2.856 -4.706,5.837 0,3.075 2.416,5.115 5.616,5.115 2.856,0 4.645,-1.319 5.775,-3.201 l -1.82,-1.131 c -0.817,1.32 -1.946,2.324 -3.955,2.324 -2.101,0 -3.388,-1.225 -3.388,-3.045 0,-1.882 1.003,-2.729 3.388,-3.828 L 8.693,7.845 c 3.546,-1.57 5.364,-3.327 5.364,-6.527 0,-3.514 -2.792,-5.649 -6.62,-5.649 C 3.359,-4.331 1.13,-2.26 0,0"
               style="fill:#f05921;fill-opacity:1;fill-rule:nonzero;stroke:none"
               id="path110" /></g><g
             id="g112"
             transform="translate(751.2361,761.2189)"><path
               d="M 0,0 V 14.058 H 2.258 V 0.157 c 0,-3.797 2.07,-5.679 5.395,-5.679 3.296,0 5.398,1.882 5.398,5.679 v 13.901 h 2.258 V 0 c 0,-4.989 -3.325,-7.532 -7.656,-7.532 C 3.294,-7.532 0,-4.989 0,0"
               style="fill:#f05921;fill-opacity:1;fill-rule:nonzero;stroke:none"
               id="path114" /></g><g
             id="g116"
             transform="translate(770.1838,758.0184)"><path
               d="m 0,0 1.883,1.004 c 1.003,-1.787 2.478,-3.326 5.491,-3.326 2.478,0 4.424,1.38 4.424,3.64 0,2.164 -1.349,3.264 -4.015,4.456 L 6.087,6.557 C 3.044,7.938 1.38,9.413 1.38,12.394 c 0,3.075 2.417,5.115 5.617,5.115 2.855,0 4.644,-1.319 5.774,-3.201 l -1.82,-1.131 c -0.817,1.32 -1.946,2.324 -3.954,2.324 -2.102,0 -3.388,-1.225 -3.388,-3.045 0,-1.882 1.003,-2.729 3.388,-3.828 L 8.693,7.845 c 3.543,-1.57 5.364,-3.327 5.364,-6.527 0,-3.514 -2.792,-5.649 -6.62,-5.649 C 3.358,-4.331 1.129,-2.26 0,0"
               style="fill:#f05921;fill-opacity:1;fill-rule:nonzero;stroke:none"
               id="path118" /></g></g></g><g
         id="g120"
         transform="translate(793.0559,773.2672)"><path
           d="M 0,0 H -6.557 V 2.009 H 8.818 V 0 H 2.26 V -19.329 H 0 Z"
           style="fill:#f05921;fill-opacity:1;fill-rule:nonzero;stroke:none"
           id="path122" /></g><g
         id="g124"
         transform="translate(805.8259,775.2766)"><path
           d="M 0,0 H 12.989 V -2.009 H 2.258 v -10.01 h 9.57 v -1.976 h -9.57 v -5.335 h 11.169 v -2.008 H 0 Z"
           style="fill:#f05921;fill-opacity:1;fill-rule:nonzero;stroke:none"
           id="path126" /></g><g
         id="g128"><g
           id="g130"
           clip-path="url(#clipPath134)"><g
             id="g136"
             transform="translate(827.4426,768.78)"><path
               d="m 0,0 c -0.597,0.722 -1.476,1.977 -1.476,1.977 0,0 0.189,-1.507 0.189,-2.415 V -14.842 H -3.421 V 6.715 h 0.377 L 9.695,-8.347 c 0.596,-0.721 1.474,-1.975 1.474,-1.975 0,0 -0.156,1.507 -0.156,2.416 V 6.497 h 2.102 V -15.06 h -0.377 z"
               style="fill:#f05921;fill-opacity:1;fill-rule:nonzero;stroke:none"
               id="path138" /></g></g></g><g
         id="g140"
         transform="translate(851.0674,773.2672)"><path
           d="M 0,0 H -6.558 V 2.009 H 8.816 V 0 H 2.259 V -19.329 H 0 Z"
           style="fill:#f05921;fill-opacity:1;fill-rule:nonzero;stroke:none"
           id="path142" /></g><g
         id="g144"><g
           id="g146"
           clip-path="url(#clipPath150)"><g
             id="g152"
             transform="translate(868.417,775.4946)"><path
               d="M 0,0 H 0.377 L 9.413,-21.556 H 7.03 l -1.445,3.577 H -5.207 l -1.412,-3.577 h -2.228 z m 4.771,-16.033 -3.766,9.476 c -0.409,1.004 -0.816,2.541 -0.816,2.541 0,0 -0.44,-1.537 -0.846,-2.541 l -3.767,-9.476 z"
               style="fill:#f05921;fill-opacity:1;fill-rule:nonzero;stroke:none"
               id="path154" /></g><g
             id="g156"
             transform="translate(881.9092,775.2766)"><path
               d="m 0,0 h 7.247 c 3.984,0 5.868,-2.355 5.868,-5.242 0,-2.1 -0.942,-3.638 -2.761,-4.235 2.761,-0.66 4.392,-2.761 4.392,-5.585 0,-3.545 -2.196,-6.276 -6.746,-6.276 H 0 Z m 7.403,-8.724 c 2.478,0 3.452,1.412 3.452,3.357 0,1.946 -1.035,3.358 -3.764,3.358 H 2.257 V -8.724 Z M 7.842,-19.33 c 3.263,0 4.613,1.851 4.613,4.33 0,2.512 -1.475,4.33 -4.738,4.33 h -5.46 v -8.66 z"
               style="fill:#f05921;fill-opacity:1;fill-rule:nonzero;stroke:none"
               id="path158" /></g></g></g><path
         d="m 901.109,775.277 h 2.291 v -21.338 h -2.291 z"
         style="fill:#f05921;fill-opacity:1;fill-rule:nonzero;stroke:none"
         id="path160" /><g
         id="g162"
         transform="translate(909.3286,775.2766)"><path
           d="m 0,0 h 2.26 v -19.33 h 10.071 v -2.008 H 0 Z"
           style="fill:#f05921;fill-opacity:1;fill-rule:nonzero;stroke:none"
           id="path164" /></g><path
         d="m 925.956,775.277 h 2.291 v -21.338 h -2.291 z"
         style="fill:#f05921;fill-opacity:1;fill-rule:nonzero;stroke:none"
         id="path166" /><g
         id="g168"><g
           id="g170"
           clip-path="url(#clipPath174)"><g
             id="g176"
             transform="translate(934.1772,775.2766)"><path
               d="m 0,0 h 5.177 c 7.124,0 11.547,-4.206 11.547,-10.67 0,-6.463 -4.394,-10.668 -11.547,-10.668 H 0 Z m 5.02,-19.297 c 6.307,0 9.319,3.545 9.319,8.627 0,5.085 -3.012,8.631 -9.319,8.631 H 2.26 v -17.258 z"
               style="fill:#f05921;fill-opacity:1;fill-rule:nonzero;stroke:none"
               id="path178" /></g><g
             id="g180"
             transform="translate(961.1919,775.4946)"><path
               d="M 0,0 H 0.375 L 9.413,-21.556 H 7.028 l -1.444,3.577 H -5.21 l -1.412,-3.577 h -2.226 z m 4.768,-16.033 -3.764,9.476 c -0.408,1.004 -0.816,2.541 -0.816,2.541 0,0 -0.441,-1.537 -0.848,-2.541 l -3.764,-9.476 z"
               style="fill:#f05921;fill-opacity:1;fill-rule:nonzero;stroke:none"
               id="path182" /></g><g
             id="g184"
             transform="translate(974.6814,775.2766)"><path
               d="m 0,0 h 5.177 c 7.122,0 11.546,-4.206 11.546,-10.67 0,-6.463 -4.393,-10.668 -11.546,-10.668 H 0 Z m 5.021,-19.297 c 6.306,0 9.317,3.545 9.317,8.627 0,5.085 -3.011,8.631 -9.317,8.631 H 2.26 v -17.258 z"
               style="fill:#f05921;fill-opacity:1;fill-rule:nonzero;stroke:none"
               id="path186" /></g></g></g><g
         id="g188"
         transform="translate(996.0159,775.2766)"><path
           d="M 0,0 H 12.989 V -2.009 H 2.259 v -10.01 h 9.569 v -1.976 H 2.259 v -5.335 h 11.17 v -2.008 H 0 Z"
           style="fill:#f05921;fill-opacity:1;fill-rule:nonzero;stroke:none"
           id="path190" /></g><g
         id="g192"
         transform="translate(1043.6455,853.7396)"><path
           d="M 0,0 H -19.761 V 16.013 H 18.057 V -99.818 H 0 Z"
           style="fill:#f05921;fill-opacity:1;fill-rule:nonzero;stroke:none"
           id="path194" /></g><path
         id="path206"
         style="fill:#f05921;fill-opacity:1;fill-rule:nonzero;stroke:none"
         d="m 1076.4675,789.6908 c 0,15.671 10.219,26.234 24.358,30.833 -8.176,4.089 -14.308,11.583 -14.308,22.655 0,16.181 14.99,27.937 33.388,27.937 18.396,0 33.385,-11.756 33.385,-27.937 0,-11.072 -6.132,-18.566 -14.478,-22.655 14.138,-4.599 24.187,-15.33 24.187,-30.833 0,-21.631 -17.035,-37.304 -43.094,-37.304 -26.065,0 -43.438,15.673 -43.438,37.304 m 68.307,0.682 c 0,12.606 -9.881,21.804 -24.869,21.804 -15.162,0 -24.871,-9.198 -24.871,-21.804 0,-12.775 9.709,-21.973 24.871,-21.973 14.988,0 24.869,9.198 24.869,21.973 m -9.369,51.274 c 0,8.005 -6.132,13.796 -15.5,13.796 -9.37,0 -15.502,-5.791 -15.502,-13.796 0,-8.178 6.132,-13.969 15.502,-13.969 9.368,0 15.5,5.791 15.5,13.969" /></g></g></svg>
