<?xml version="1.0" standalone="no"?>
<!DOCTYPE svg PUBLIC "-//W3C//DTD SVG 20010904//EN"
 "http://www.w3.org/TR/2001/REC-SVG-20010904/DTD/svg10.dtd">
<svg version="1.0" xmlns="http://www.w3.org/2000/svg"
 width="180.000000pt" height="180.000000pt" viewBox="0 0 180.000000 180.000000"
 preserveAspectRatio="xMidYMid meet">
<metadata>
Created by potrace 1.11, written by Peter Selinger 2001-2013
</metadata>
<g transform="translate(0.000000,180.000000) scale(0.100000,-0.100000)"
fill="#000000" stroke="none">
<path d="M0 900 l0 -900 900 0 900 0 0 900 0 900 -900 0 -900 0 0 -900z m750
620 c0 -27 -21 -80 -57 -143 -18 -33 -32 -61 -30 -63 6 -6 186 147 241 204 51
53 66 57 66 18 0 -51 -114 -173 -265 -283 l-30 -22 33 -60 c26 -47 32 -70 30
-103 -2 -23 -8 -43 -14 -45 -6 -2 -35 37 -65 87 -61 105 -56 105 -111 -16 -41
-91 -68 -97 -68 -15 0 34 9 44 26 30 19 -15 38 -1 24 16 -14 16 -4 75 12 75 6
0 8 -10 4 -25 -8 -32 7 -32 24 0 10 19 11 28 3 36 -7 7 -8 18 -3 28 5 9 17 38
26 65 10 26 26 53 36 59 22 14 24 37 2 37 -12 0 -8 15 22 68 20 37 44 75 53
85 15 17 16 17 28 1 7 -10 13 -25 13 -34z m378 -124 c-2 -34 0 -41 15 -40 70
3 73 4 91 39 11 19 26 41 33 47 21 17 34 -8 27 -49 -5 -25 -2 -33 15 -42 31
-17 25 -29 -15 -33 -35 -3 -39 -7 -85 -93 -56 -103 -69 -150 -47 -171 25 -25
63 17 119 131 56 114 84 149 99 125 17 -26 11 -49 -35 -136 -25 -48 -45 -94
-43 -103 10 -49 67 14 148 161 25 46 52 83 60 83 32 0 21 -53 -30 -155 -28
-56 -49 -105 -45 -108 3 -3 29 18 58 46 58 57 67 62 67 32 0 -25 -59 -82 -109
-105 -33 -14 -44 -27 -66 -79 -39 -89 -83 -155 -118 -173 -30 -15 -32 -15 -54
11 -28 33 -30 80 -3 123 20 33 87 88 121 98 10 4 19 13 19 21 0 11 -4 12 -19
4 -28 -14 -47 -13 -66 6 -14 15 -18 15 -49 0 -45 -21 -65 -20 -92 5 l-22 20
-38 -20 c-49 -26 -74 -26 -102 -1 l-21 20 -33 -20 c-72 -44 -123 -17 -116 61
6 55 84 202 111 207 30 6 22 -63 -17 -133 -18 -34 -37 -76 -41 -93 -6 -27 -4
-32 12 -32 29 0 68 47 97 116 14 34 35 79 48 99 l22 38 -22 15 c-31 21 -27 32
12 32 29 0 37 6 64 51 37 58 55 56 50 -5z m-170 -40 c-4 -27 -38 -33 -55 -10
-17 23 -16 29 3 49 15 15 18 15 36 -1 10 -10 18 -27 16 -38z m-524 -282 c-1
-16 -31 -83 -68 -149 -36 -66 -66 -125 -66 -131 0 -6 21 -9 59 -6 38 3 61 0
66 -8 11 -17 3 -21 -80 -37 -72 -13 -78 -13 -91 4 -7 10 -14 23 -14 29 0 15
71 159 125 253 48 83 71 98 69 45z m164 -78 c-4 -25 -27 -28 -41 -4 -8 12 -7
21 2 32 18 21 43 2 39 -28z m72 -47 c0 -18 3 -18 40 7 33 22 43 24 55 14 8 -7
15 -18 15 -25 0 -10 11 -7 38 8 41 22 72 18 72 -9 0 -10 -16 -46 -35 -81 -36
-65 -43 -97 -24 -108 15 -10 45 21 70 73 31 67 73 117 115 137 31 15 40 15 62
4 20 -11 26 -11 29 -1 7 19 21 14 28 -9 5 -14 -7 -47 -36 -104 -34 -66 -41
-87 -32 -96 15 -15 47 10 71 56 17 33 28 20 18 -21 -7 -27 -59 -64 -90 -64
-11 0 -27 7 -36 15 -15 14 -20 14 -46 0 -36 -19 -49 -19 -68 0 -13 14 -19 13
-51 -2 -26 -13 -42 -14 -63 -7 -43 15 -42 64 3 138 19 32 33 61 30 64 -11 12
-101 -98 -129 -157 -16 -33 -33 -61 -38 -61 -14 0 -20 49 -9 81 6 17 25 54 41
81 17 28 28 53 25 57 -11 10 -89 -82 -124 -149 -22 -42 -36 -59 -43 -52 -7 7
-18 7 -34 0 -17 -8 -31 -8 -49 0 -38 18 -34 71 13 157 37 68 63 88 70 53 2 -9
-13 -50 -32 -89 -38 -77 -42 -94 -26 -104 18 -11 40 15 69 79 55 122 101 174
101 115z"/>
<path d="M1128 1313 c-35 -4 -39 -8 -87 -103 -52 -101 -61 -139 -37 -159 24
-20 64 26 121 140 54 106 63 131 48 127 -5 -1 -25 -3 -45 -5z"/>
<path d="M1288 933 c-42 -46 -74 -123 -50 -123 4 0 19 19 33 43 63 100 70 136
17 80z"/>
<path d="M1010 903 c-44 -50 -76 -121 -61 -136 17 -17 38 0 76 63 63 102 53
151 -15 73z"/>
</g>
</svg>
